# xmcd
#
# Track frame offsets: 
#        150
#        12693
#        26285
#        38123
#        48996
#        62478
#        73415
#        84225
#        94774
#        105957
#        115843
#        124687
#        136875
#        146849
#        158213
#        168713
#        184801
#        198307
#        209500
#        221325
#        231552
#        244048
#        258701
#        270974
#
# Disc length: 3765 seconds
#
# Revision: 3
# Processed by: cddbd v1.5.2PL0 Copyright (c) Steve Scherf et al.
# Submitted via: ExactAudioCopyFreeDBPlugin 1.0
#
DISCID=5c0eb318
DTITLE=Various Artist - The Goldwax Story
DYEAR=2001
DGENRE=Soul
TTITLE0=The Ovations - I'm Living Good (ft Louis Williams)
TTITLE1="Wee" Willie Walker - There Goes My Used to Be
TTITLE2=Spencer Wiggins - I'll Be True to You
TTITLE3=James Carr - I Don't Want to Be Hurt No More
TTITLE4=O.V. Wright - That's How Strong My Love Is (with The Keys)
TTITLE5=Barbara Perry - Unlovable
TTITLE6=Gene (Bowlegs) Miller - Here it is Now
TTITLE7=Percy Milem - Call on Me
TTITLE8=Dorothy Williams - The Well's Gone Dry
TTITLE9=Spencer Wiggins - He's Too Old
TTITLE10=Eddie Jefferson - Some Other Time
TTITLE11=James Carr - Pouring Water on a Drowning Man
TTITLE12=The Ovations - Rockin' Chair
TTITLE13=Jeb Stuart - Will I Ever Be Free
TTITLE14=The Lyrics - Darling
TTITLE15=Spencer Wiggins - The Power of a Man
TTITLE16=Ben Atkins and The Second Hand - I've Been Loving You Too Long
TTITLE17=Timmy Thomas - Liquid Mood
TTITLE18=The Ovations - Don't Cry
TTITLE19=George and Greer - You Didn't Know It, But You Had Me
TTITLE20=The Five C's - Love is a Tricky Thing
TTITLE21=The Ovations - It's Wonderful to Be in Love
TTITLE22=Spencer Wiggins - Uptight Good Woman
TTITLE23=James Carr - The Dark End of the Street
EXTD=YEAR: 2001
EXTT0=
EXTT1=
EXTT2=
EXTT3=
EXTT4=
EXTT5=
EXTT6=
EXTT7=
EXTT8=
EXTT9=
EXTT10=
EXTT11=
EXTT12=
EXTT13=
EXTT14=
EXTT15=
EXTT16=
EXTT17=
EXTT18=
EXTT19=
EXTT20=
EXTT21=
EXTT22=
EXTT23=
PLAYORDER=
